<svg xmlns="http://www.w3.org/2000/svg" viewBox="0 0 231 231">
	<path d="M33.83,33.83a115.5,115.5,0,1,1,0,163.34,115.49,115.49,0,0,1,0-163.34Z" style="fill:#ff2f2b;" />
	<path
		d="m115.5 51.75a63.75 63.75 0 0 0-10.5 126.63v14.09a115.5 115.5 0 0 0-53.729 19.027 115.5 115.5 0 0 0 128.46 0 115.5 115.5 0 0 0-53.729-19.029v-14.084a63.75 63.75 0 0 0 53.25-62.881 63.75 63.75 0 0 0-63.65-63.75 63.75 63.75 0 0 0-0.09961 0z"
		style="fill:#755227;" />
	<path
		d="m141.75 195a114.79 114.79 0 0 1 38 16.5 115.53 115.53 0 0 1-128.46 0 114.79 114.79 0 0 1 38-16.5 115.77 115.77 0 0 1 15.71-2.53v-14.09a63.8 63.8 0 0 0 21 0v14.09a116.6 116.6 0 0 1 15.75 2.53z"
		style="fill:#000;" />
	<path
		d="m60.984 205.66 6.2675 2.2051 3.4074-6.819 2.8018-1.1353-3.9911 7.9907 27.222-3.0857 3.2541-11.739 2.1451-0.2692-3.2833 11.819 20.393-1.6011-14.191-15.945v-2.4379l17.606-5.7274 3.3855-0.473v1.47l-19.167 6.2295 14.731 16.542 19.839-7.7432 3.3636 0.8223-21.371 8.34 20.532 13.842 2.6777-21.687 1.9481 0.5604-2.7726 22.378 0.0584 0.0364 8.5075 4.9923-2.4807 0.85145-6.4718-3.7916-1.2987 6.0622-2.1524 0.53125 1.3425-6.2804-17.037 8.8348-5.0271 0.35661 21.59-11.193-20.962-14.133-7.5006 25.457-2.0721-0.0364 7.6392-25.915-21.05 1.652 9.0109 24.052-1.4155-0.0946-0.49615-0.0437-0.073-7e-3 -0.2043-0.0145-8.3688-22.342-10.127 19.242-1.9846-0.52399 10.514-19.962-26.04 2.9547 13.425 16.418-3.4438-1.0625-12.083-14.781-8.1645 5.9675-1.9043-1.077 8.128-5.9385-6.9898-2.4598 2.3348-1.2881zm92.509-7.2556 14.228 20.093-1.8095 0.89514-15.614-22.043z"
		style="fill:#fff;" />
	<path d="m115.5 51.75c-38.702 5.3101-54.215 18.038-59.863 35.101"
		style="fill:none;stroke-linecap:round;stroke-linejoin:round;stroke-width:12;stroke:#FFFAAD;" />
	<path d="m115.5 51.75c-7.8393 3.6337-5.5974 16.583-14.341 23.452"
		style="fill:none;stroke-linecap:round;stroke-linejoin:round;stroke-width:12;stroke:#FFFAAD;" />
	<path d="m111.35 48.614c-22.634-6.9181-42.457-3.1988-55.733 2.5105"
		style="fill:none;stroke-linecap:round;stroke-linejoin:round;stroke-width:12;stroke:#FFFAAD;" />
	<path d="m115.47 54.008c0.1965-6.7774-0.1436-26.309 0.05-38.184"
		style="fill:none;stroke-linecap:round;stroke-linejoin:round;stroke-width:12;stroke:#FFFAAD;" />
	<path d="m68.874 28.177c34.115-3.382 41.987 13.321 45.17 19.602"
		style="fill:none;stroke-linecap:round;stroke-linejoin:round;stroke-width:12;stroke:#FFFAAD;" />
	<path d="m116.49 48.69c2.8876-6.3019 10.358-21.518 43.469-22.326"
		style="fill:none;stroke-linecap:round;stroke-linejoin:round;stroke-width:12;stroke:#FFFAAD;" />
	<path d="m116.92 51.766c1.5094 6.3991 3.4988 15.595 10.088 23.058"
		style="fill:none;stroke-linecap:round;stroke-linejoin:round;stroke-width:12;stroke:#FFFAAD;" />
	<path d="m113.81 51.532c22.03-7.8674 46.709-7.3614 59.444-2.0465"
		style="fill:none;stroke-linecap:round;stroke-linejoin:round;stroke-width:12;stroke:#FFFAAD;" />
	<path d="m114.53 52.278c36.226 4.8583 52.414 17.092 59.373 33.347"
		style="fill:none;stroke-linecap:round;stroke-linejoin:round;stroke-width:12;stroke:#FFFAAD;" />
	<path d="m55.637 86.851c-4.1213 12.452-2.9877 27.213-1.777 43.084"
		style="fill:none;stroke-linecap:round;stroke-linejoin:round;stroke-width:12;stroke:#FFFAAD;" />
	<path d="m55.614 51.124c-13.422 5.5019-21.908 16.409-24.712 28.774-1.8322 8.4632-1.9809 18.156-1.6096 28.486"
		style="fill:none;stroke-linecap:round;stroke-linejoin:round;stroke-width:12;stroke:#FFFAAD;" />
	<path d="m173.26 49.486c24.917 10.399 26.707 36.537 27.209 59.62"
		style="fill:none;stroke-linecap:round;stroke-linejoin:round;stroke-width:12;stroke:#FFFAAD;" />
	<path d="m173.9 85.625c5.4042 12.625 5.2413 27.675 4.5745 43.58"
		style="fill:none;stroke-linecap:round;stroke-linejoin:round;stroke-width:12;stroke:#FFFAAD;" />
	<path d="m53.86 129.93c1.293 16.951 2.6738 35.169-2.1664 53.193"
		style="fill:none;stroke-linecap:round;stroke-linejoin:round;stroke-width:12;stroke:none;" />
	<path d="m29.292 108.38c0.6173 17.177 2.6722 36.119 0.8158 54.108"
		style="fill:none;stroke-linecap:round;stroke-linejoin:round;stroke-width:12;stroke:none;" />
	<path d="m200.47 109.11c0.3586 18.529-1.2751 36.94 1.9231 48.985"
		style="fill:none;stroke-linecap:round;stroke-linejoin:round;stroke-width:12;stroke:none;" />
	<path d="m178.48 129.2c-0.7279 17.362-2.0563 35.743 2.6011 53.099"
		style="fill:none;stroke-linecap:round;stroke-linejoin:round;stroke-width:12;stroke:none;" />
	<path d="m145.38 95.628c-5.1601 2.2597-11.03 2.2597-16.19 0m-47.29 1.75c5.1755-2.2694 11.065-2.2694 16.24 0"
		style="fill:none;stroke-linecap:round;stroke-linejoin:round;stroke-width:5.9998px;stroke:none;" />
	<path
		d="m90.016 106.28c-4.4506-0.0105-6.6902 5.3657-3.5508 8.5195 3.1394 3.1539 8.5252 0.93887 8.5352-3.5117 0.0063-2.7522-2.2204-4.9898-4.9727-4.9961l-0.011719-0.01172zm47.281 0c-4.4506-0.0105-6.6902 5.3657-3.5508 8.5195 3.1394 3.1539 8.5252 0.93887 8.5352-3.5117 6e-3 -2.7522-2.2204-4.9898-4.9727-4.9961l-0.01171-0.01172z"
		style="fill:#000;" />
	<path d="m127.84 146.73c-2.24 8.93-6.92 15.08-12.34 15.08s-10.1-6.15-12.34-15.08z"
		style="fill:#000;stroke-linecap:round;stroke-linejoin:round;stroke-width:2.9999px;stroke:none;" /></svg>