<svg xmlns="http://www.w3.org/2000/svg" viewBox="0 0 231 231">
	<path d="M33.83,33.83a115.5,115.5,0,1,1,0,163.34,115.49,115.49,0,0,1,0-163.34Z" style="fill:#ff1ec1;" />
	<path
		d="m115.5 51.75a63.75 63.75 0 0 0-10.5 126.63v14.09a115.5 115.5 0 0 0-53.729 19.027 115.5 115.5 0 0 0 128.46 0 115.5 115.5 0 0 0-53.729-19.029v-14.084a63.75 63.75 0 0 0 53.25-62.881 63.75 63.75 0 0 0-63.65-63.75 63.75 63.75 0 0 0-0.09961 0z"
		style="fill:#d2ad6d;" />
	<path
		d="m91.92 194.41a101.47 101.47 0 0 1 23.58 17.09 101.47 101.47 0 0 1 23.58-17.09c0.89 0.19 1.78 0.38 2.67 0.59a114.79 114.79 0 0 1 38 16.5 115.53 115.53 0 0 1-128.46 0 114.79 114.79 0 0 1 38-16.5c0.88-0.21 1.78-0.4 2.67-0.59z"
		style="fill:#ff0000;" />
	<path
		d="m73.65 199.82c16.59 8.23 28.72 18.91 34.27 30.93a114.86 114.86 0 0 1-56.65-19.25 115.06 115.06 0 0 1 22.38-11.68z"
		style="fill:#ffc107;" />
	<path d="m60.63 205.85c12.35 5.94 21.93 13.44 27.59 21.91a114.7 114.7 0 0 1-36.95-16.26q4.53-3 9.36-5.65z"
		style="fill:#ff0000;" />
	<path
		d="m157.35 199.82c-16.6 8.23-28.72 18.91-34.27 30.93a114.86 114.86 0 0 0 56.65-19.25 115.06 115.06 0 0 0-22.38-11.68z"
		style="fill:#ffc107;" />
	<path d="m170.37 205.85c-12.35 5.94-21.93 13.44-27.59 21.91a114.7 114.7 0 0 0 36.95-16.26q-4.53-3-9.36-5.65z"
		style="fill:#ff0000;" />
	<path d="m115.5 51.75c-38.702 5.3101-54.215 18.038-59.863 35.101"
		style="fill:none;stroke-linecap:round;stroke-linejoin:round;stroke-width:12;stroke:#FFFAAD;" />
	<path d="m115.5 51.75c-7.8393 3.6337-5.5974 16.583-14.341 23.452"
		style="fill:none;stroke-linecap:round;stroke-linejoin:round;stroke-width:12;stroke:#FFFAAD;" />
	<path d="m111.35 48.614c-22.634-6.9181-42.457-3.1988-55.733 2.5105"
		style="fill:none;stroke-linecap:round;stroke-linejoin:round;stroke-width:12;stroke:#FFFAAD;" />
	<path d="m115.47 54.008c0.1965-6.7774-0.1436-26.309 0.05-38.184"
		style="fill:none;stroke-linecap:round;stroke-linejoin:round;stroke-width:12;stroke:#FFFAAD;" />
	<path d="m68.874 28.177c34.115-3.382 41.987 13.321 45.17 19.602"
		style="fill:none;stroke-linecap:round;stroke-linejoin:round;stroke-width:12;stroke:#FFFAAD;" />
	<path d="m116.49 48.69c2.8876-6.3019 10.358-21.518 43.469-22.326"
		style="fill:none;stroke-linecap:round;stroke-linejoin:round;stroke-width:12;stroke:#FFFAAD;" />
	<path d="m116.92 51.766c1.5094 6.3991 3.4988 15.595 10.088 23.058"
		style="fill:none;stroke-linecap:round;stroke-linejoin:round;stroke-width:12;stroke:#FFFAAD;" />
	<path d="m113.81 51.532c22.03-7.8674 46.709-7.3614 59.444-2.0465"
		style="fill:none;stroke-linecap:round;stroke-linejoin:round;stroke-width:12;stroke:#FFFAAD;" />
	<path d="m114.53 52.278c36.226 4.8583 52.414 17.092 59.373 33.347"
		style="fill:none;stroke-linecap:round;stroke-linejoin:round;stroke-width:12;stroke:#FFFAAD;" />
	<path d="m55.637 86.851c-4.1213 12.452-2.9877 27.213-1.777 43.084"
		style="fill:none;stroke-linecap:round;stroke-linejoin:round;stroke-width:12;stroke:#FFFAAD;" />
	<path d="m55.614 51.124c-13.422 5.5019-21.908 16.409-24.712 28.774-1.8322 8.4632-1.9809 18.156-1.6096 28.486"
		style="fill:none;stroke-linecap:round;stroke-linejoin:round;stroke-width:12;stroke:#FFFAAD;" />
	<path d="m173.26 49.486c24.917 10.399 26.707 36.537 27.209 59.62"
		style="fill:none;stroke-linecap:round;stroke-linejoin:round;stroke-width:12;stroke:#FFFAAD;" />
	<path d="m173.9 85.625c5.4042 12.625 5.2413 27.675 4.5745 43.58"
		style="fill:none;stroke-linecap:round;stroke-linejoin:round;stroke-width:12;stroke:#FFFAAD;" />
	<path d="m53.86 129.93c1.293 16.951 2.6738 35.169-2.1664 53.193"
		style="fill:none;stroke-linecap:round;stroke-linejoin:round;stroke-width:12;stroke:none;" />
	<path d="m29.292 108.38c0.6173 17.177 2.6722 36.119 0.8158 54.108"
		style="fill:none;stroke-linecap:round;stroke-linejoin:round;stroke-width:12;stroke:none;" />
	<path d="m200.47 109.11c0.3586 18.529-1.2751 36.94 1.9231 48.985"
		style="fill:none;stroke-linecap:round;stroke-linejoin:round;stroke-width:12;stroke:none;" />
	<path d="m178.48 129.2c-0.7279 17.362-2.0563 35.743 2.6011 53.099"
		style="fill:none;stroke-linecap:round;stroke-linejoin:round;stroke-width:12;stroke:none;" />
	<path
		d="m161.73 86.016h-92.51c-3.37 0-6.0001 2.3998-6.0001 5.2999v28.45c0 3.0002 2.74 5.3001 6.0001 5.3001h32.36c7.0901 0 7.44-19.43 13.82-19.43s6.8801 19.44 13.83 19.44h32.36c3.37 0 5.9999-2.4 5.9999-5.3001v-28.46c0.14043-2.9001-2.6-5.2999-5.9-5.2999z"
		style="fill:#581b1b;" />
	<path
		d="m161.73 86.016h-92.51c-3.37 0-6.0001 2.3998-6.0001 5.2999v28.45l104.55-28.45c0-2.9001-2.74-5.2999-5.9999-5.2999z"
		style="fill:#FF8B8B;" />
	<path
		d="m161.73 86.016h-92.51c-3.37 0-6.0001 2.3998-6.0001 5.2999v28.45c0 3.0002 2.74 5.3001 6.0001 5.3001h32.36c7.0901 0 7.44-19.43 13.82-19.43s6.8801 19.44 13.83 19.44h32.36c3.37 0 5.9999-2.4 5.9999-5.3001v-28.46c0.14043-2.9001-2.6-5.2999-5.9-5.2999z"
		style="fill:none;stroke-linecap:round;stroke-linejoin:round;stroke-width:4.0026px;stroke:#000;" />
	<path
		d="m115.68 160.64c7.08 0 13.11-4.93 15.46-11.84a2.14 2.14 0 0 0-1.51-2.6101 2.3 2.3 0 0 0-0.73995-0.0593h-26.42a2.12 2.12 0 0 0-2.31 1.9099 1.85 1.85 0 0 0 0.0593 0.73995c2.3401 6.9301 8.3802 11.86 15.46 11.86z"
		style="fill:#7d0000;" /></svg>