<svg xmlns="http://www.w3.org/2000/svg" viewBox="0 0 231 231">
	<path d="M33.83,33.83a115.5,115.5,0,1,1,0,163.34,115.49,115.49,0,0,1,0-163.34Z" style="fill:#104c8c;" />
	<path
		d="m115.5 51.75a63.75 63.75 0 0 0-10.5 126.63v14.09a115.5 115.5 0 0 0-53.729 19.027 115.5 115.5 0 0 0 128.46 0 115.5 115.5 0 0 0-53.729-19.029v-14.084a63.75 63.75 0 0 0 53.25-62.881 63.75 63.75 0 0 0-63.65-63.75 63.75 63.75 0 0 0-0.09961 0z"
		style="fill:#fff;" />
	<path
		d="m115.5 231a115 115 0 0 0 64.23-19.5 114.79 114.79 0 0 0-38-16.5l-2.41-9a125.19 125.19 0 0 0-13.32-2.28v8.75q3.52 0.32 7 0.84l-17.5 17.48-17.5-17.48q3.45-0.52 7-0.84v-8.75a125.55 125.55 0 0 0-13.34 2.28l-2.41 9a114.79 114.79 0 0 0-38 16.5 114.94 114.94 0 0 0 64.25 19.5z"
		style="fill:#ee2829;" />
	<path d="m132.98 193.33-36.185 36.155-2.4-0.42 36.108-36.081z" style="fill:#ff0;" />
	<path
		d="m69.834 33.826c-8.2001-0.0626-16.444 2.6753-23.152 7.7038-8.5298 6.9899-12.159 19.61-12.329 32.68-0.2041 15.476 1.6092 34.752 1.7464 51.915 0.10414 13.047 0.53485 25.984-2.9197 33.995-2.4994 5.81-9.0955 9.6006-16.196 12.311 7.9599 2.8301 25.009 2.8094 33.58 1.5393 10.8-1.59 17.238-6.5294 17.159-22.699-0.0911-15.93-1.3894-29.23-1.559-45.83-0.3208-11.983-1.569-24.291 4.9774-33.987 4.2139-6.1265 10.452-10.521 17.116-13.588 3.9292-1.8575 8.0384-3.3083 12.263-4.3297-6.8718-13.574-18.732-19.618-30.687-19.709z"
		style="fill:#fff510;" />
	<path
		d="m90.8 76.246c11.918-17.125 31.996-23.218 49.743-17.488 11.81 3.9496 20.692 13.389 22.313 28.237 0.51051 6.2098 0.63413 12.445 0.37007 18.67-0.23973 11.2-0.72946 23.82-1.0995 34.08-0.82005 22.43 0.0593 35.1 24.589 36.3 8.5635 0.32122 17.137-0.22845 25.59-1.6405h-0.0198c-10.74-3.3799-17.98-15.609-19.3-26.289-1.29-10.41-0.6098-23.43-0.7898-38.091-0.1701-14.96 1.0398-29.819 0.28008-42.089-1.414-22.777-14.947-38.505-34.126-45.152-27.813-7.35-51.083 0.091-61.672 17.343-5.4698 8.9112-7.7413 20.07-5.8788 36.121z"
		style="fill:#fff510;" />
	<path d="m83.527 103.98v10h10v-10h-10zm53.945 0v10h10v-10h-10z" style="fill:none;" />
	<path
		d="m56.621 94.906v11.688h5.3418v6.4922h5.3418v6.1055h5.3223v6.2324h26.846v-6.2324h5.3047v-6.1055h5.1445v-6.0039h11.154v6.0039h5.1446v6.1055h5.3066v6.2324h26.846v-6.2324h5.3203v-6.1055h5.3438v-6.4922h5.3418v-11.688z"
		style="fill:#000;" />
	<path
		d="m67.387 100.65v5.9394h5.1992v-5.9394zm5.1992 5.9394v6.4922h5.4238v-6.4922zm5.4238 0h5.1992v-5.9394h-5.1992zm5.1992 0v6.4922h5.4258v-6.4922zm5.4258 6.4922v6.1055h5.1426v-6.1055zm-10.625 0v6.1055h5.1445v-6.1055zm48.281-12.432v5.9394h5.1992v-5.9394zm5.1992 5.9394v6.4922h5.4238v-6.4922zm5.4238 0h5.1992v-5.9394h-5.1992zm5.1992 0v6.4922h5.4258v-6.4922zm5.4258 6.4922v6.1055h5.1426v-6.1055zm-10.625 0v6.1055h5.1445v-6.1055z"
		style="fill:#fff;" />
	<path
		d="m115.5 153.93a14 14 0 0 1-10.5-4.69 3.4209 3.4209 0 0 1 5-4.67l0.08 0.08 0.08 0.09a7.35 7.35 0 0 0 10.39 0.37l0.37-0.37a3.4206 3.4206 0 1 1 5.23 4.41l-0.08 0.09a14 14 0 0 1-10.53 4.69z" />
	<path
		d="m115.27 127.32c-7.6627-0.03-15.251 1.4419-20.646 5.1465-7.62 5.33-9.9053 11.512-14.127 18.109-3.4379 5.2447-9.326 10.024-13.467 6.334 25.425 29.755 71.409 29.786 96.875 0.0664-6.8104 3.9305-11.545-2.47-13.508-6.4004-10.697-17.605-14.115-22.656-35.127-23.256zm-0.26758 8.3984c7.457 0.0802 14.986 1.2966 17.146 5.9522 2.5765 11.319-7.5878 17.454-16.681 17.515-6.09-0.05-12.2-2.3802-15.26-7.7402-6.36-11.16 3.6349-15.607 14.795-15.727z"
		style="fill:#000;" /></svg>