<svg xmlns="http://www.w3.org/2000/svg" viewBox="0 0 231 231">
	<path d="M33.83,33.83a115.5,115.5,0,1,1,0,163.34,115.49,115.49,0,0,1,0-163.34Z" style="fill:#bcf700;" />
	<path
		d="m115.5 51.75a63.75 63.75 0 0 0-10.5 126.63v14.09a115.5 115.5 0 0 0-53.729 19.027 115.5 115.5 0 0 0 128.46 0 115.5 115.5 0 0 0-53.729-19.029v-14.084a63.75 63.75 0 0 0 53.25-62.881 63.75 63.75 0 0 0-63.65-63.75 63.75 63.75 0 0 0-0.09961 0z"
		style="fill:#7b401e;" />
	<path
		d="m116 203.13c-0.12 0-0.25 0.12-0.49 0.12s-0.25-0.12-0.49-0.12zm-27.29-8c0.87-0.25 1.72-0.47 2.56-0.69a32.37 32.37 0 0 0 0.3 8.57 21.5 21.5 0 0 0 7 6.88c6.41-6 16.8-6.64 16.8-6.64s10.5 0.58 17 6.69a21.61 21.61 0 0 0 6.93-6.66 32.34 32.34 0 0 0 0.35-8.84l2.13 0.56a114.79 114.79 0 0 1 38 16.5 115.53 115.53 0 0 1-128.46 0 114.64 114.64 0 0 1 37.38-16.37z"
		style="fill:#FFBA32;" />
	<path d="m126.15 206-3.92 7.83h-13.46l-3.92-7.83a36.59 36.59 0 0 1 10.65-2.7 35.66 35.66 0 0 1 10.65 2.7z"
		style="fill:#484848;" />
	<path d="m124.54 230.65-2.18-16.74h-13.47l-2.19 16.76c2.9 0.22 5.84 0.33 8.8 0.33s6.06-0.12 9-0.35z"
		style="fill:#4e4e4e;" />
	<path d="m134.84 186s0.86 9.8-19.34 17.26c0 0 15.79 0.86 20.57 11.76 0.12 0.49 9.3-23.26-1.23-29z"
		style="fill:#fff;" />
	<path
		d="m96.16 186c-10.41 5.76-1.35 29.39-1.1 29 4.65-10.78 20.56-11.76 20.56-11.76-20.32-7.45-19.46-17.24-19.46-17.24z"
		style="fill:#fff;" />
	<path d="m115.5 51.75c-38.702 5.3101-54.215 18.038-59.863 35.101"
		style="fill:none;stroke-linecap:round;stroke-linejoin:round;stroke-width:12;stroke:#32393f;" />
	<path d="m115.5 51.75c-7.8393 3.6337-5.5974 16.583-14.341 23.452"
		style="fill:none;stroke-linecap:round;stroke-linejoin:round;stroke-width:12;stroke:#32393f;" />
	<path d="m111.35 48.614c-22.634-6.9181-42.457-3.1988-55.733 2.5105"
		style="fill:none;stroke-linecap:round;stroke-linejoin:round;stroke-width:12;stroke:#32393f;" />
	<path d="m115.47 54.008c0.1965-6.7774-0.1436-26.309 0.05-38.184"
		style="fill:none;stroke-linecap:round;stroke-linejoin:round;stroke-width:12;stroke:#32393f;" />
	<path d="m68.874 28.177c34.115-3.382 41.987 13.321 45.17 19.602"
		style="fill:none;stroke-linecap:round;stroke-linejoin:round;stroke-width:12;stroke:#32393f;" />
	<path d="m116.49 48.69c2.8876-6.3019 10.358-21.518 43.469-22.326"
		style="fill:none;stroke-linecap:round;stroke-linejoin:round;stroke-width:12;stroke:#32393f;" />
	<path d="m116.92 51.766c1.5094 6.3991 3.4988 15.595 10.088 23.058"
		style="fill:none;stroke-linecap:round;stroke-linejoin:round;stroke-width:12;stroke:#32393f;" />
	<path d="m113.81 51.532c22.03-7.8674 46.709-7.3614 59.444-2.0465"
		style="fill:none;stroke-linecap:round;stroke-linejoin:round;stroke-width:12;stroke:#32393f;" />
	<path d="m114.53 52.278c36.226 4.8583 52.414 17.092 59.373 33.347"
		style="fill:none;stroke-linecap:round;stroke-linejoin:round;stroke-width:12;stroke:#32393f;" />
	<path d="m55.637 86.851c-4.1213 12.452-2.9877 27.213-1.777 43.084"
		style="fill:none;stroke-linecap:round;stroke-linejoin:round;stroke-width:12;stroke:#32393f;" />
	<path d="m55.614 51.124c-13.422 5.5019-21.908 16.409-24.712 28.774-1.8322 8.4632-1.9809 18.156-1.6096 28.486"
		style="fill:none;stroke-linecap:round;stroke-linejoin:round;stroke-width:12;stroke:#32393f;" />
	<path d="m173.26 49.486c24.917 10.399 26.707 36.537 27.209 59.62"
		style="fill:none;stroke-linecap:round;stroke-linejoin:round;stroke-width:12;stroke:#32393f;" />
	<path d="m173.9 85.625c5.4042 12.625 5.2413 27.675 4.5745 43.58"
		style="fill:none;stroke-linecap:round;stroke-linejoin:round;stroke-width:12;stroke:#32393f;" />
	<path d="m53.86 129.93c1.293 16.951 2.6738 35.169-2.1664 53.193"
		style="fill:none;stroke-linecap:round;stroke-linejoin:round;stroke-width:12;stroke:#32393f;" />
	<path d="m29.292 108.38c0.6173 17.177 2.6722 36.119 0.8158 54.108"
		style="fill:none;stroke-linecap:round;stroke-linejoin:round;stroke-width:12;stroke:#32393f;" />
	<path d="m200.47 109.11c0.3586 18.529-1.2751 36.94 1.9231 48.985"
		style="fill:none;stroke-linecap:round;stroke-linejoin:round;stroke-width:12;stroke:#32393f;" />
	<path d="m178.48 129.2c-0.7279 17.362-2.0563 35.743 2.6011 53.099"
		style="fill:none;stroke-linecap:round;stroke-linejoin:round;stroke-width:12;stroke:#32393f;" />
	<path
		d="m170.25 100c1.69 9.62-4.79 29.23-22.4 29.23-6.81 0-15-3.66-20.23-10-4.34-5.33-7.56-12.87-6.2-19.45 1.63-7.89 7.07-11.45 14.67-12.92a68.16 68.16 0 0 1 12.52-1c10.77 0 19.78 3.61 21.64 14.22z"
		style="fill:#c4ffe4;stroke-width:3.99px;stroke:#000;" />
	<path
		d="m60.75 100c-1.69 9.62 4.79 29.23 22.4 29.23 6.81 0 15-3.66 20.23-10 4.34-5.33 7.56-12.87 6.2-19.45-1.63-7.89-7.07-11.45-14.67-12.92a68.16 68.16 0 0 0-12.52-1c-10.77 0-19.78 3.61-21.64 14.22z"
		style="fill:#c4ffe4;stroke-width:3.99px;stroke:#000;" />
	<line x1="100.2" x2="130.8" y1="87.92" y2="87.92"
		style="fill:none;stroke-linecap:round;stroke-linejoin:round;stroke-width:3.99px;stroke:#000;" />
	<path d="m109.87 101.73c0-2.59 2.52-4.69 5.63-4.69s5.63 2.1 5.63 4.69"
		style="fill:none;stroke-width:3.99px;stroke:#000;" />
	<path d="m127.84 146.73c-2.24 8.93-6.92 15.08-12.34 15.08s-10.1-6.15-12.34-15.08z"
		style="fill:#000;stroke-linecap:round;stroke-linejoin:round;stroke-width:2.9999px;stroke:none;" /></svg>