<svg xmlns="http://www.w3.org/2000/svg" viewBox="0 0 231 231">
	<path d="M33.83,33.83a115.5,115.5,0,1,1,0,163.34,115.49,115.49,0,0,1,0-163.34Z" style="fill:#FFC107;" />
	<path
		d="m115.5 51.75a63.75 63.75 0 0 0-10.5 126.63v14.09a115.5 115.5 0 0 0-53.729 19.027 115.5 115.5 0 0 0 128.46 0 115.5 115.5 0 0 0-53.729-19.029v-14.084a63.75 63.75 0 0 0 53.25-62.881 63.75 63.75 0 0 0-63.65-63.75 63.75 63.75 0 0 0-0.09961 0z"
		style="fill:#fee3c5;" />
	<path
		d="m141.75 195a114.79 114.79 0 0 1 38 16.5 115.53 115.53 0 0 1-128.46 0 114.79 114.79 0 0 1 38-16.5l15.71 15.75h21z"
		style="fill:#354B65;" />
	<path
		d="m89.291 195a114.79 114.79 0 0 0-38.002 16.5 115.53 115.53 0 0 0 38.002 16.482zm52.434 0v32.982a115.53 115.53 0 0 0 38-16.482 114.79 114.79 0 0 0-38-16.5z"
		style="fill:#3D8EBB;" />
	<path
		d="m157.15 199.75c0.2548 7.4501 1.54 14.855 4.9512 21.432a115.53 115.53 0 0 0 17.619-9.6797 114.79 114.79 0 0 0-22.57-11.752zm-83.295 2e-3a114.79 114.79 0 0 0-22.57 11.75 115.53 115.53 0 0 0 17.621 9.6797c3.411-6.5765 4.6944-13.98 4.9492-21.43z"
		style="fill:#89D0DA;" />
	<path d="m99.197 204.97v2e-3l16.302 16.301 16.301-16.301v-2e-3z" style="fill:#00FFFD;" />
	<path d="m115.5 51.75c-38.702 5.3101-54.215 18.038-59.863 35.101"
		style="fill:none;stroke-linecap:round;stroke-linejoin:round;stroke-width:12;stroke:#FFFAAD;" />
	<path d="m115.5 51.75c-7.8393 3.6337-5.5974 16.583-14.341 23.452"
		style="fill:none;stroke-linecap:round;stroke-linejoin:round;stroke-width:12;stroke:#FFFAAD;" />
	<path d="m111.35 48.614c-22.634-6.9181-42.457-3.1988-55.733 2.5105"
		style="fill:none;stroke-linecap:round;stroke-linejoin:round;stroke-width:12;stroke:#FFFAAD;" />
	<path d="m115.47 54.008c0.1965-6.7774-0.1436-26.309 0.05-38.184"
		style="fill:none;stroke-linecap:round;stroke-linejoin:round;stroke-width:12;stroke:#FFFAAD;" />
	<path d="m68.874 28.177c34.115-3.382 41.987 13.321 45.17 19.602"
		style="fill:none;stroke-linecap:round;stroke-linejoin:round;stroke-width:12;stroke:#FFFAAD;" />
	<path d="m116.49 48.69c2.8876-6.3019 10.358-21.518 43.469-22.326"
		style="fill:none;stroke-linecap:round;stroke-linejoin:round;stroke-width:12;stroke:#FFFAAD;" />
	<path d="m116.92 51.766c1.5094 6.3991 3.4988 15.595 10.088 23.058"
		style="fill:none;stroke-linecap:round;stroke-linejoin:round;stroke-width:12;stroke:#FFFAAD;" />
	<path d="m113.81 51.532c22.03-7.8674 46.709-7.3614 59.444-2.0465"
		style="fill:none;stroke-linecap:round;stroke-linejoin:round;stroke-width:12;stroke:#FFFAAD;" />
	<path d="m114.53 52.278c36.226 4.8583 52.414 17.092 59.373 33.347"
		style="fill:none;stroke-linecap:round;stroke-linejoin:round;stroke-width:12;stroke:#FFFAAD;" />
	<path d="m55.637 86.851c-4.1213 12.452-2.9877 27.213-1.777 43.084"
		style="fill:none;stroke-linecap:round;stroke-linejoin:round;stroke-width:12;stroke:#FFFAAD;" />
	<path d="m55.614 51.124c-13.422 5.5019-21.908 16.409-24.712 28.774-1.8322 8.4632-1.9809 18.156-1.6096 28.486"
		style="fill:none;stroke-linecap:round;stroke-linejoin:round;stroke-width:12;stroke:#FFFAAD;" />
	<path d="m173.26 49.486c24.917 10.399 26.707 36.537 27.209 59.62"
		style="fill:none;stroke-linecap:round;stroke-linejoin:round;stroke-width:12;stroke:#FFFAAD;" />
	<path d="m173.9 85.625c5.4042 12.625 5.2413 27.675 4.5745 43.58"
		style="fill:none;stroke-linecap:round;stroke-linejoin:round;stroke-width:12;stroke:#FFFAAD;" />
	<path d="m53.86 129.93c1.293 16.951 2.6738 35.169-2.1664 53.193"
		style="fill:none;stroke-linecap:round;stroke-linejoin:round;stroke-width:12;stroke:none;" />
	<path d="m29.292 108.38c0.6173 17.177 2.6722 36.119 0.8158 54.108"
		style="fill:none;stroke-linecap:round;stroke-linejoin:round;stroke-width:12;stroke:none;" />
	<path d="m200.47 109.11c0.3586 18.529-1.2751 36.94 1.9231 48.985"
		style="fill:none;stroke-linecap:round;stroke-linejoin:round;stroke-width:12;stroke:none;" />
	<path d="m178.48 129.2c-0.7279 17.362-2.0563 35.743 2.6011 53.099"
		style="fill:none;stroke-linecap:round;stroke-linejoin:round;stroke-width:12;stroke:none;" />
	<path d="m133 108.17h14.17m-63.26 0h14.09m-20.69-8.93a21.31 21.31 0 0 1 27.29 0m21.8 0a21.31 21.31 0 0 1 27.29 0"
		style="fill:none;stroke-linecap:round;stroke-linejoin:round;stroke-width:4.8243px;stroke:#000;" />
	<path
		d="m115.5 153.93a14 14 0 0 1-10.5-4.69 3.4209 3.4209 0 0 1 5-4.67l0.08 0.08 0.08 0.09a7.35 7.35 0 0 0 10.39 0.37l0.37-0.37a3.4206 3.4206 0 1 1 5.23 4.41l-0.08 0.09a14 14 0 0 1-10.53 4.69z" />
	<path
		d="m115.27 127.32c-7.6627-0.03-15.251 1.4419-20.646 5.1465-7.62 5.33-9.9053 11.512-14.127 18.109-3.4379 5.2447-9.326 10.024-13.467 6.334 25.425 29.755 71.409 29.786 96.875 0.0664-6.8104 3.9305-11.545-2.47-13.508-6.4004-10.697-17.605-14.115-22.656-35.127-23.256zm-0.26758 8.3984c7.457 0.0802 14.986 1.2966 17.146 5.9522 2.5765 11.319-7.5878 17.454-16.681 17.515-6.09-0.05-12.2-2.3802-15.26-7.7402-6.36-11.16 3.6349-15.607 14.795-15.727z"
		style="fill:#3a484a;" /></svg>