<svg xmlns="http://www.w3.org/2000/svg" viewBox="0 0 231 231">
	<path d="M33.83,33.83a115.5,115.5,0,1,1,0,163.34,115.49,115.49,0,0,1,0-163.34Z" style="fill:#ff501f;" />
	<path
		d="m115.5 51.75a63.75 63.75 0 0 0-10.5 126.63v14.09a115.5 115.5 0 0 0-53.729 19.027 115.5 115.5 0 0 0 128.46 0 115.5 115.5 0 0 0-53.729-19.029v-14.084a63.75 63.75 0 0 0 53.25-62.881 63.75 63.75 0 0 0-63.65-63.75 63.75 63.75 0 0 0-0.09961 0z"
		style="fill:#ffce73;" />
	<path
		d="m141.75 195a114.79 114.79 0 0 1 38 16.5 115.53 115.53 0 0 1-128.46 0 114.79 114.79 0 0 1 38-16.5l15.71 15.75h21z"
		style="fill:#354B65;" />
	<path
		d="m89.291 195a114.79 114.79 0 0 0-38.002 16.5 115.53 115.53 0 0 0 38.002 16.482zm52.434 0v32.982a115.53 115.53 0 0 0 38-16.482 114.79 114.79 0 0 0-38-16.5z"
		style="fill:#3D8EBB;" />
	<path
		d="m157.15 199.75c0.2548 7.4501 1.54 14.855 4.9512 21.432a115.53 115.53 0 0 0 17.619-9.6797 114.79 114.79 0 0 0-22.57-11.752zm-83.295 2e-3a114.79 114.79 0 0 0-22.57 11.75 115.53 115.53 0 0 0 17.621 9.6797c3.411-6.5765 4.6944-13.98 4.9492-21.43z"
		style="fill:#89D0DA;" />
	<path d="m99.197 204.97v2e-3l16.302 16.301 16.301-16.301v-2e-3z" style="fill:#00FFFD;" />
	<path
		d="m30.622 70.381c2.0971-3.9374 4.6649-7.9604 7.6822-12.037 3.0172-4.0765 6.0987-7.6929 9.2229-10.817l22.897 22.897c-4.4402 4.4403-8.2278 9.5439-11.213 15.14z"
		style="fill:#14fffd;" />
	<path
		d="m160.58 70.423 22.907-22.897c3.1242 3.1242 6.2056 6.7406 9.2229 10.817 3.0065 4.0765 5.5744 8.0994 7.6715 12.037l-28.578 15.182c-2.9851-5.5958-6.7727-10.689-11.224-15.14z"
		style="fill:#14fffd;" />
	<path
		d="m92.411 15.247c3.8197-0.87736 7.6715-1.5407 11.534-1.9794 4.0765-0.46007 7.9282-0.69546 11.555-0.69546 1.53 0 3.1563 0.0428 4.8682 0.1391l1.851 22.255 5.767-21.57c3.1028 0.37449 6.0666 0.86666 8.8912 1.4658l-10.55 49.763c-1.9259-0.41729-3.702-0.70617-5.3176-0.87736-1.423-0.14979-3.2633-0.22468-5.5102-0.22468-2.2362 0-4.237 0.10699-5.981 0.29958-1.9473 0.22469-3.8732 0.55636-5.767 0.99504z"
		style="fill:#14fffd;" />
	<path
		d="m92.411 15.247c1.9152-0.43869 4.023-0.84526 6.3233-1.2304 2.065-0.34238 4.1514-0.62057 6.2698-0.84525l5.1785 50.565c-1.0913 0.10699-2.1827 0.25679-3.2954 0.43868-0.86665 0.14979-1.9152 0.36378-3.1349 0.64196z"
		style="fill:#0d3a62;" />
	<path d="m129.31 114.14 20-5.37m-47.66 5.37-20-5.37"
		style="fill:none;stroke-linecap:round;stroke-linejoin:round;stroke-width:4.9998px;stroke:#000;" />
	<path
		d="m100.35 143.85a7.67 7.67 0 0 0 7.58 7.7v0a7.66 7.66 0 0 0 7.57-7.7 7.66 7.66 0 0 0 7.57 7.7v0a7.67 7.67 0 0 0 7.58-7.7"
		style="fill:none;stroke-linecap:round;stroke-linejoin:round;stroke-width:6.3998px;stroke:#000;" /></svg>